<svg width="20" height="25" viewBox="0 0 20 25" fill="none" xmlns="http://www.w3.org/2000/svg">
<path d="M18.0999 11.3892C17.7714 10.9725 17.3715 10.6114 17.0001 10.2503C16.0431 9.41694 14.9576 8.8197 14.0435 7.94467C11.9153 5.91684 11.444 2.56952 12.8009 0C11.444 0.319454 10.2585 1.0417 9.24439 1.83339C5.54507 4.72236 4.08819 9.81973 5.83073 14.1948C5.88786 14.3337 5.94499 14.4726 5.94499 14.6532C5.94499 14.9588 5.73075 15.2365 5.44508 15.3477C5.11657 15.4866 4.77378 15.4032 4.5024 15.181C4.42085 15.1154 4.35297 15.0353 4.30244 14.9449C2.68845 12.9587 2.43135 10.1114 3.51687 7.83356C1.13159 9.7225 -0.168174 12.917 0.0175064 15.931C0.103205 16.6255 0.188904 17.3199 0.431716 18.0144C0.63168 18.8478 1.01732 19.6811 1.44582 20.4172C2.98839 22.8201 5.65933 24.5424 8.53023 24.8896C11.5868 25.2646 14.8576 24.7229 17.2001 22.6673C19.8139 20.3617 20.728 16.6671 19.3854 13.5004L19.1997 13.1393C18.8998 12.5004 18.0999 11.3892 18.0999 11.3892ZM13.5865 20.1395C13.1865 20.4728 12.5295 20.8339 12.0153 20.9728C10.4156 21.5284 8.8159 20.7506 7.87321 19.8339C9.5729 19.445 10.587 18.2227 10.8869 16.9866C11.1298 15.8755 10.6727 14.9588 10.487 13.8893C10.3156 12.8615 10.3442 11.9865 10.7298 11.0281C11.0012 11.5559 11.2869 12.0837 11.6297 12.5004C12.7295 13.8893 14.4577 14.5004 14.8291 16.3894C14.8862 16.5838 14.9148 16.7783 14.9148 16.9866C14.9576 18.1255 14.4434 19.3756 13.5865 20.1395Z" fill="white"/>
</svg>
