<svg width="12" height="11" viewBox="0 0 12 11" fill="none" xmlns="http://www.w3.org/2000/svg">
<path fill-rule="evenodd" clip-rule="evenodd" d="M5.02105 1.94118C4.87475 2.67955 4.23757 3.23529 3.47368 3.23529C2.7098 3.23529 2.07262 2.67955 1.92632 1.94118H0.315789C0.141383 1.94118 0 1.79633 0 1.61765C0 1.43897 0.141384 1.29412 0.315789 1.29412H1.92632C2.07262 0.555746 2.7098 0 3.47368 0C4.23757 0 4.87475 0.555746 5.02105 1.29412H11.6842C11.8586 1.29412 12 1.43897 12 1.61765C12 1.79633 11.8586 1.94118 11.6842 1.94118H5.02105ZM4.42105 1.61765C4.42105 2.15369 3.9969 2.58824 3.47368 2.58824C2.95047 2.58824 2.52632 2.15369 2.52632 1.61765C2.52632 1.08161 2.95047 0.647059 3.47368 0.647059C3.9969 0.647059 4.42105 1.08161 4.42105 1.61765Z" fill="white"/>
<path fill-rule="evenodd" clip-rule="evenodd" d="M10.0737 5.82353C9.92738 6.5619 9.2902 7.11765 8.52632 7.11765C7.76243 7.11765 7.12525 6.5619 6.97895 5.82353H0.315789C0.141383 5.82353 0 5.67868 0 5.5C0 5.32132 0.141384 5.17647 0.315789 5.17647H6.97895C7.12525 4.4381 7.76243 3.88235 8.52632 3.88235C9.2902 3.88235 9.92738 4.4381 10.0737 5.17647H11.6842C11.8586 5.17647 12 5.32132 12 5.5C12 5.67868 11.8586 5.82353 11.6842 5.82353H10.0737ZM9.47368 5.5C9.47368 6.03604 9.04953 6.47059 8.52632 6.47059C8.0031 6.47059 7.57895 6.03604 7.57895 5.5C7.57895 4.96396 8.0031 4.52941 8.52632 4.52941C9.04953 4.52941 9.47368 4.96396 9.47368 5.5Z" fill="white"/>
<path fill-rule="evenodd" clip-rule="evenodd" d="M3.47368 11C4.23757 11 4.87475 10.4443 5.02105 9.70588H11.6842C11.8586 9.70588 12 9.56103 12 9.38235C12 9.20367 11.8586 9.05882 11.6842 9.05882H5.02105C4.87475 8.32045 4.23757 7.76471 3.47368 7.76471C2.7098 7.76471 2.07262 8.32045 1.92632 9.05882H0.315789C0.141384 9.05882 0 9.20367 0 9.38235C0 9.56103 0.141383 9.70588 0.315789 9.70588H1.92632C2.07262 10.4443 2.7098 11 3.47368 11ZM3.47368 10.3529C3.9969 10.3529 4.42105 9.91839 4.42105 9.38235C4.42105 8.84631 3.9969 8.41177 3.47368 8.41177C2.95047 8.41177 2.52632 8.84631 2.52632 9.38235C2.52632 9.91839 2.95047 10.3529 3.47368 10.3529Z" fill="white"/>
</svg>
